<svg version="1.2" xmlns="http://www.w3.org/2000/svg" viewBox="0 0 27 30" width="27" height="30">
	<title>-check-svg-svg</title>
	<style>
		.s0 { fill: #50af95 } 
		.s1 { fill: #ffffff } 
	</style>
	<path id="Layer" class="s0" d="m11.6 1c0.6-1.3 2.6-1.3 3.2 0l2.3 5.2c0.3 0.7 1.1 1.1 1.8 1l5.6-0.6c1.5-0.1 2.5 1.6 1.6 2.8l-3.3 4.6c-0.4 0.6-0.4 1.4 0 2l3.3 4.6c0.9 1.2-0.1 2.9-1.6 2.8l-5.6-0.6c-0.7-0.1-1.5 0.3-1.8 1l-2.3 5.2c-0.6 1.3-2.6 1.3-3.2 0l-2.3-5.2c-0.3-0.7-1-1.1-1.8-1l-5.6 0.6c-1.5 0.1-2.5-1.6-1.6-2.8l3.4-4.6c0.4-0.6 0.4-1.4 0-2l-3.4-4.6c-0.9-1.2 0.1-2.9 1.6-2.8l5.6 0.6c0.8 0.1 1.5-0.3 1.8-1z"/>
	<path id="Layer" fill-rule="evenodd" class="s1" d="m19.4 11.2c0.4 0.4 0.4 1 0 1.3l-7.5 7.5c-0.4 0.4-0.9 0.4-1.3 0l-3.8-3.7c-0.3-0.4-0.3-1 0-1.3 0.4-0.4 1-0.4 1.4 0l3.1 3 6.8-6.8c0.4-0.4 0.9-0.4 1.3 0z"/>
</svg>